# xmcd
#
# Track frame offsets: 
#        150
#        18155
#        46607
#        67376
#        70947
#        80070
#        81703
#        83111
#        103206
#        110621
#        119779
#        124452
#        133996
#        142760
#        150461
#
# Disc length: 2210 seconds
#
# Revision: 0
# Processed by: cddbd v1.5.2PL0 Copyright (c) Steve Scherf et al.
# Submitted via: ExactAudioCopy v0.99pb5
#
DISCID=df08a00f
DTITLE=Kiss  - Dynasty Sessions - Disc 6
DYEAR=1900
DGENRE=
TTITLE0=I Was Made For Lovin' You - Take 1
TTITLE1=I Was Made For Lovin' You - Take 2
TTITLE2=I Was Made For Lovin' You - Take 3
TTITLE3=I Was Made For Lovin' You - Take 4
TTITLE4=I Was Made For Lovin' You - Take 5
TTITLE5=I Was Made For Lovin' You - Take 6
TTITLE6=I Was Made For Lovin' You - Take 7
TTITLE7=I Was Made For Lovin' You - Take 8
TTITLE8=I Was Made For Lovin' You - Take 9
TTITLE9=I Was Made For Lovin' You - Take 10
TTITLE10=I Was Made For Lovin' You - Take 11
TTITLE11=I Was Made For Lovin' You - Take 12
TTITLE12=I Was Made For Lovin' You - Take 13
TTITLE13=I Was Made For Lovin' You - Take 14
TTITLE14=I Was Made For Lovin' You - Take 15
EXTD=
EXTT0=
EXTT1=
EXTT2=
EXTT3=
EXTT4=
EXTT5=
EXTT6=
EXTT7=
EXTT8=
EXTT9=
EXTT10=
EXTT11=
EXTT12=
EXTT13=
EXTT14=
PLAYORDER=
